<?xml version="1.0" encoding="utf-8"?>
<!-- Generator: Adobe Illustrator 22.1.0, SVG Export Plug-In . SVG Version: 6.00 Build 0)  -->
<svg version="1.1" xmlns="http://www.w3.org/2000/svg" xmlns:xlink="http://www.w3.org/1999/xlink" x="0px" y="0px"
	 viewBox="0 0 1920 1080" style="enable-background:new 0 0 1920 1080;" xml:space="preserve">
<style type="text/css">
	.st0{display:none;}
	.st1{display:inline;stroke:#BC01BF;stroke-width:11;stroke-linecap:round;stroke-miterlimit:10;}
	.st2{fill:#FB01FF;}
</style>
<g id="Bg" class="st0">
	<rect x="-17.1" y="-2" class="st1" width="1950.2" height="1122.1"/>
</g>
<g id="Overlay_2">
	<g id="Magenta__x28_Heart_x29__Overlay_2">
		<g id="图层_70">
			<path class="st2" d="M194,347.5h-7V108.8h7V347.5z M350.5,264h-160v7h160V264z M354,347.5h-7v240h7V347.5z M270.5,424h-160v7h160
				V424z M274,347.5h-7v80h7V347.5z M270.5,584h-80v7h80V584z M270.5,504h-80v7h80V504z M274,507.5h-7v80h7V507.5z M194,587.5h-7
				v160h7V587.5z M510.5,664h-240v7h240V664z M190.5,907.5 M190.5,827.5 M430.5,827.5 M430.5,827.5 M430.5,987.5 M430.5,667.5
				 M510.5,587.5 M510.5,667.5 M750.5,584h-320v7h320V584z M434,507.5h-7v80h7V507.5z M670.5,504h-240v7h240V504z M434,347.5h-7v80
				h7V347.5z M430.5,184h-160v7h160V184z M514,107.5h-7v240h7V107.5z M590.5,344h-80v7h80V344z M590.5,587.5 M590.5,747.5
				 M590.5,747.5 M510.5,747.5 M670.5,827.5 M510.5,907.5 M510.5,987.5 M994,667.5h-7v160h7V667.5z M594,667.5h-7V824H434v-80H113v7
				h314v80h167V667.5z M990.5,667.5 M750.5,907.5 M910.5,744h-160v7h160V744z M750.5,827.5 M750.5,907.5 M830.5,907.5 M830.5,747.5
				 M990.5,824h-80v7h80V824z M914,827.5h-7v160h7V827.5z M834,264H590.5v7H827v313h-73V347.5h-7V591h87V264z M674,351h76.5v-7H667
				v80H430.5v7H674V351z M594,187.5h-7v80h7V187.5z M910.5,184h-320v7h320V184z M1230.5,584h-240v7h240V584z M350.5,584h-80v7h80
				V584z M1070.5,344h-160v7h160V344z M1150.5,264H994V107.5h-7V271h163.5V264z M1154,267.5h-7V424H910.5v7H1154V267.5z M994,507.5
				h-7v80h7V507.5z M994,911h240v-87h-80v-80h-87v83.5h7V751h73v80h80v73H987v83.5h7V911z M1790.5,667.5 M1390.5,907.5 M1474,744
				h-87v160h-73v-76.5h-7V911h87V751h73v236.5h7V744z M1790.7,827.5 M1710.5,827.5 M1790.7,827.5 M1714,827.5h-7V904h-153v-76.5h-7
				V911h167V827.5z M1310.5,827.5 M1630.5,667.5 M1234,664h-163.5v7H1227v73h-76.5v7h83.5V664z M1470.5,667.5 M1550.5,667.5
				 M1390.5,427.5 M1474,347.5h-7v80h7V347.5z M1234,184h-163.5v7H1227v236.5h7V184z M1470.5,664H1314V504H990.5v7H1307v160h163.5
				V664z M1714,107.5h-7V184h-76.5v7h83.5V107.5z M1550.5,344h-80v7h80V344z M1394,271h80V107.5h-7V264h-80v160h-73V191h76.5v-7
				H1307v247h87V271z M1470.5,427.5 M750.5,507.5 M750.5,427.5 M1554,507.5h-7V584h-236.5v7H1554V507.5z M750.5,507.5 M1790.5,264
				h-80v7h80V264z M1554,110h-7v77.5h7V110z M1554,671l80,0V504h-243.5v7H1627v153l-80,0v163.5h7V671z M1314,667.5h-7v80h7V667.5z
				 M1634,751h162v-7h-169v83.5h7V751z M1714,344h-87v80h-73V271h76.5v-7H1547v167h87v-80h73v156.5h7V344z M1714,587.5h-7V664h-76.5
				v7h83.5V587.5z M1474,424h-83.5v7h76.5v76.5h7V424z M434,107.5h-7v160h7V107.5z M350.5,907.5 M510.5,907.5 M674,831h80V671h160
				V187.5h-7V664H747v160h-80v80H510.5v7H674V831z M990.5,667.5 M274,747.5h-7v80h7V747.5z M190.5,987.5 M270.5,904H194v-80h-81v7
				h74v80h83.5V904z M830.5,827.5 M830.5,987.5 M434,904h-80v-76.5h-7V911h80v76.5h7V904z M514,667.5h-7v80h7V667.5z M754,907.5h-7
				v80h7V907.5z M674,587.5h-7v160h7V587.5z M834,747.5h-7v160h7V747.5z"/>
		</g>
	</g>
</g>
</svg>
